<?xml version="1.0" encoding="UTF-8" standalone="no"?>
<!-- Uploaded to: SVG Repo, www.svgrepo.com, Generator: SVG Repo Mixer Tools -->

<svg
   width="800px"
   height="800px"
   viewBox="0 0 64 64"
   aria-hidden="true"
   role="img"
   class="iconify iconify--emojione-monotone"
   preserveAspectRatio="xMidYMid meet"
   version="1.1"
   id="svg2"
   sodipodi:docname="baby-chick-svgrepo-com.svg"
   inkscape:version="1.3.2 (091e20e, 2023-11-25, custom)"
   xmlns:inkscape="http://www.inkscape.org/namespaces/inkscape"
   xmlns:sodipodi="http://sodipodi.sourceforge.net/DTD/sodipodi-0.dtd"
   xmlns="http://www.w3.org/2000/svg"
   xmlns:svg="http://www.w3.org/2000/svg">
  <defs
     id="defs2" />
  <sodipodi:namedview
     id="namedview2"
     pagecolor="#ffffff"
     bordercolor="#000000"
     borderopacity="0.25"
     inkscape:showpageshadow="2"
     inkscape:pageopacity="0.0"
     inkscape:pagecheckerboard="0"
     inkscape:deskcolor="#d1d1d1"
     inkscape:zoom="0.3610664"
     inkscape:cx="432.05349"
     inkscape:cy="155.09613"
     inkscape:window-width="882"
     inkscape:window-height="708"
     inkscape:window-x="402"
     inkscape:window-y="250"
     inkscape:window-maximized="0"
     inkscape:current-layer="svg2" />
  <path
     d="m 52.06907,24.671946 c -1.545,0 -2.796,-1.644 -2.796,-3.181 0,-1.537 1.25,-2.208 2.796,-2.208 1.542,0 2.799,0.671 2.799,2.208 0,1.537 -1.257,3.181 -2.799,3.181"
     fill="#000000"
     id="path1" />
  <path
     d="m 4.4372248,31.942736 c 0,-0.677 0.152,-1.234 0.453,-1.657 0.365,-0.513 0.93,-0.795 1.59,-0.795 13.4590002,0 15.6560002,-4.104 17.9840002,-8.449 1.377,-2.572 2.799,-5.227 6.305,-7.168 -1.752,-3.832 -3.598,-6.0949996 -3.617,-6.1179996 l -1.504,-1.826 2.332,0.229 c 0.191,0.019 4.453,0.468 8.811,3.498 3.354,-6.049 9.293,-7.875 9.557,-7.954 l 1.981,-0.589 -0.833,1.919 c -0.014,0.032 -1.226,2.867 -1.671,7.3439996 0.291,-0.13 0.594,-0.251 0.906,-0.36 3.359,-1.1849996 6.489,-1.7849996 9.303,-1.7849996 3.436,0 5.194,0.921 5.267,0.96 l 1.552,0.8319996 -1.526,0.879 c -0.034,0.02 -3.28,1.903 -7.887,5.621 1.987,2.041 3.524,4.643 4.564,7.541 0.087,-0.005 0.165,-0.019 0.256,-0.019 3.326,0 6.177,4.429 6.177,8.056 v 1.916 l -1.82,-0.506 -0.041,-0.012 c -0.599,0.828 -1.785,1.508 -3.211,1.559 -0.723,5.959 -4.176,10.605 -9.786,13.516 l 3.042,3.998 c 1.235089,-0.332065 1.580679,-1.240071 2.592,-1.987 1.7,-1.209 3.679,-1.4 3.98,-1.006 0.303,0.396 -13.113,9.943 -13.416,9.549 -0.647159,-2.148589 3.644989,-3.932673 4.902,-5.173 l -3.321,-4.369 c -3.93,1.578 -8.711,2.426 -14.196,2.426 -0.389,0 -0.77,-0.016 -1.152,-0.029 v 7.406 c 0.35744,0.06179 0.70951,0.151398 1.053,0.268 0.725465,-0.25225 1.487932,-0.381693 2.256,-0.383 2.111,0 3.822,0.982 3.822,1.473 0,0.491 -16.67,0.49 -16.67,0 0,-0.49 1.711,-1.473 3.822,-1.473 0.76806,0.0014 1.530512,0.130841 2.256,0.383 0.342434,-0.115571 0.693095,-0.205158 1.049,-0.268 v -7.563 c -16.526,-1.719 -25.1610002,-15.063 -25.1610002,-19.884 m 58.5600002,0.159 c 0,-3.124 -2.498,-6.594 -4.738,-6.594 -2.242,0 -2.009,1.596 -2.009,4.719 l 6.747,1.875 m -5.53,2.637 c -1.438,-0.541 -1.938,-1.631 -2.077,-3.232 l -0.581,-0.162 v -1.117 c 0,-0.277 -0.002,-0.541 -0.004,-0.795 -0.014,-2.014 -0.024,-3.471 0.976,-4.493 0.121964,-0.12052 0.255245,-0.22902 0.398,-0.324 -1.073,-2.936 -2.716,-5.514 -4.835,-7.422 l -0.846,-0.761 0.876,-0.726 c 3.032,-2.507 5.542,-4.273 7.136,-5.326 -0.818504,-0.13666 -1.647176,-0.203234 -2.477,-0.199 -2.599,0 -5.517,0.564 -8.674,1.678 -0.777,0.274 -1.48,0.622 -2.09,1.035 l -1.58,1.072 0.088,-1.929 c 0.152,-3.3099996 0.736,-5.9519996 1.227,-7.6549996 -2.014,1.041 -5.166,3.203 -7.006,7.1459996 l -0.51,1.093 -0.943,-0.738 c -2.323,-1.817 -4.737,-2.7799996 -6.44,-3.2779996 1.075594,1.6984226 2.011021,3.4816546 2.797,5.3319996 l 0.371,0.869 -0.846,0.402 c -3.561,1.694 -4.879,4.158 -6.277,6.767 -2.488,4.647 -5.061,9.454 -19.6430002,9.454 h -0.061 c -0.146,0.178 -0.238,1.346 0.766,3.527 0.957,2.078 2.8850002,4.895 5.8030002,7.531 1.094,0.217 2.326,0.516 3.699,0.848 2.576,0.625 5.535,1.334 8.758,1.807 0.135,0.023 0.266,0.041 0.4,0.063 -3.777,-1.143 -5.504,-3.215 -6.404,-4.363 -2.311,-1.463 -3.576,-3.404 -3.631,-3.49 l -1.727,-2.688 2.455,0.566 c -0.154834,-0.361694 -0.270817,-0.738809 -0.346,-1.125 l -0.586,-3.346 2.67,2.1 c 0.0342,0.02673 0.06992,0.05144 0.107,0.074 0.0063,-0.27089 0.03912,-0.540512 0.098,-0.805 l 0.633,-2.549 1.645,2.049 c 0.03004,0.03801 0.06209,0.0744 0.096,0.109 2.691,-2.112 6.893,-3.35 11.512,-3.35 8.719,0 9.838,4.584 9.838,8.578 0,3.031 -1.912,7.287 -6.908,8.623 1.998,-0.148 3.248,-0.385 3.248,-0.385 3.375,-0.471 6.465,-1.219 9.144,-1.865 2.878,-0.697 5.135,-1.23 6.736,-1.195 1.649,-2.11 2.678,-4.596 3.015,-7.405 m -37.524,-0.17 c -0.207,0 -1.598,-0.025 -2.443,-0.689 0,0 0.295,1.686 1.65,2.639 -0.712601,0.249897 -1.480937,0.295277 -2.218,0.131 0,0 1.205,1.873 3.418,3.209 1.115,1.424 3.674,4.859 11.611,4.859 6.903,0 8.971,-5.037 8.971,-7.752 0,-4.02 -1.285,-7.278 -8.538,-7.278 -4.912,0 -9.188,1.498 -11.438,3.712 -0.475,-0.275 -0.889,-0.588 -1.186,-0.959 0,0 -0.232,0.941 0.197,2.129 0.001,-10e-4 -0.007,-10e-4 -0.024,-10e-4 m 13.221,15.492 c 9.233,0 16.315,-2.506 20.422,-6.912 -1.455,0.129 -3.415,0.598 -5.647,1.139 -4.335,1.049 -9.731,2.354 -15.722,2.354 -5.988,0 -11.387,-1.307 -15.725,-2.357 -0.66,-0.16 -1.277,-0.309 -1.871,-0.447 4.371,3.415 10.531,6.223 18.543,6.223"
     fill="#000000"
     id="path2"
     sodipodi:nodetypes="ccscccccccccccscccccsscccccccccccsccccssccccccscccccscccccccccccccccccccccsccccccccccccccccccssccccccccccssscccccccsccc" />
</svg>
