<svg xmlns="http://www.w3.org/2000/svg" width="18" height="18" viewBox="0 0 18 18"><title>arrow door in 2</title><g fill="#b8b8b8e0" class="nc-icon-wrapper"><path d="M7.25,5.75V3.25c0-.552,.448-1,1-1h6.5c.552,0,1,.448,1,1V14.75c0,.552-.448,1-1,1h-6.5c-.552,0-1-.448-1-1v-2.5" fill="none" stroke="#b8b8b8e0" stroke-linecap="round" stroke-linejoin="round" stroke-width="1.5"></path><polyline points="4 11.75 6.75 9 4 6.25" fill="none" stroke="#ffc800" stroke-linecap="round" stroke-linejoin="round" stroke-width="1.5" data-color="color-2"></polyline><line x1="6.75" y1="9" x2=".75" y2="9" fill="none" stroke="#ffc800" stroke-linecap="round" stroke-linejoin="round" stroke-width="1.5" data-color="color-2"></line><path d="M15.543,2.648l-3.321,2.059c-.294,.182-.473,.504-.473,.85v6.887c0,.346,.179,.667,.473,.85l3.322,2.06" fill="none" stroke="#b8b8b8e0" stroke-linecap="round" stroke-linejoin="round" stroke-width="1.5"></path></g></svg>