<svg xmlns="http://www.w3.org/2000/svg" width="18" height="18" viewBox="0 0 18 18"><title>bolt</title><g fill="#b8b8b8e0" class="nc-icon-wrapper"><path d="M14.922,7.657c-.218-.405-.64-.657-1.1-.657h-3.969l.752-5.83c.061-.464-.204-.902-.643-1.065-.438-.164-.926-.004-1.184,.387L3.134,9.063c-.253,.384-.274,.875-.056,1.28s.64,.657,1.1,.657h3.969l-.752,5.83c-.061,.464,.204,.902,.643,1.065,.115,.043,.234,.064,.352,.064,.328,0,.642-.162,.832-.45h0s5.645-8.572,5.645-8.572c.253-.384,.274-.875,.056-1.28Z" fill="#b8b8b8e0"></path></g></svg>