<svg xmlns="http://www.w3.org/2000/svg" width="32" height="32" viewBox="0 0 32 32"><rect data-element="frame" x="0" y="0" width="32" height="32" rx="7" ry="7" stroke="none" fill="#000000"></rect><g class="nc-icon-wrapper" fill="#ED7409" transform="translate(6.4 6.4) scale(0.6)"><g fill="#ED7409"><path transform="scale(1,-1) translate(0,-32)" d="M 23.329333333333338 27.37333333333334 C 22.692 27.741333333333337 21.876 27.524 21.508 26.88533333333334 C 21.14 26.248 21.35866666666666 25.432 21.996 25.064 C 25.698666666666675 22.922666666666675 28 18.938666666666673 28 14.666666666666675 C 28 8.049333333333337 22.617333333333338 2.6666666666666625 16 2.6666666666666625 S 4 8.049333333333337 4 14.666666666666675 C 4 18.93733333333334 6.3 22.92 10.001333333333337 25.06266666666666 C 10.638666666666662 25.430666666666674 10.857333333333338 26.246666666666663 10.486666666666663 26.884 C 10.12 27.522666666666662 9.304 27.74266666666666 8.665333333333338 27.369333333333337 C 4.1426666666666625 24.753333333333337 1.3333333333333375 19.88533333333334 1.3333333333333375 14.666666666666675 C 1.3333333333333375 6.58 7.9133333333333375 0 16 0 S 30.66666666666666 6.58 30.66666666666666 14.666666666666663 C 30.66666666666666 19.888 27.856 24.75733333333334 23.329333333333338 27.37333333333334 z  M 16 20 C 16.73733333333334 20 17.33333333333334 20.596 17.33333333333334 21.33333333333334 V 30.666666666666675 C 17.33333333333334 31.404 16.73733333333334 32 16 32 S 14.666666666666663 31.404 14.666666666666663 30.666666666666675 V 21.33333333333334 C 14.666666666666663 20.596 15.262666666666663 20 16 20 z"></path></g></g></svg>