<svg xmlns="http://www.w3.org/2000/svg" width="32" height="32" viewBox="0 0 32 32"><g class="nc-icon-wrapper" fill="#ffd737" stroke-linejoin="round" stroke-linecap="round"><g fill="#ffd737"><path transform="scale(1,-1) translate(0,-32)" d="M 12 30.666666666666675 H 4 C 3.2626666666666626 30.666666666666675 2.6666666666666625 30.070666666666675 2.6666666666666625 29.33333333333334 V 2.6666666666666625 C 2.6666666666666625 1.9293333333333376 3.2626666666666626 1.3333333333333375 4 1.3333333333333375 H 12 C 12.737333333333337 1.3333333333333375 13.333333333333337 1.9293333333333376 13.333333333333337 2.6666666666666625 V 29.33333333333334 C 13.333333333333337 30.070666666666675 12.737333333333337 30.666666666666675 12 30.666666666666675 z  M 28 30.666666666666675 H 20 C 19.262666666666675 30.666666666666675 18.666666666666675 30.070666666666675 18.666666666666675 29.33333333333334 V 2.6666666666666625 C 18.666666666666675 1.9293333333333376 19.262666666666675 1.3333333333333375 20 1.3333333333333375 H 28 C 28.73733333333334 1.3333333333333375 29.33333333333334 1.9293333333333376 29.33333333333334 2.6666666666666625 V 29.33333333333334 C 29.33333333333334 30.070666666666675 28.73733333333334 30.666666666666675 28 30.666666666666675 z"></path></g></g></svg>