<svg xmlns="http://www.w3.org/2000/svg" width="18" height="18" viewBox="0 0 18 18"><title>chevron expand y</title><g fill="#b8b8b8e0" class="nc-icon-wrapper"><path d="M9.53,2.22c-.293-.293-.768-.293-1.061,0l-3.5,3.5c-.293,.293-.293,.768,0,1.061s.768,.293,1.061,0l2.97-2.97,2.97,2.97c.146,.146,.338,.22,.53,.22s.384-.073,.53-.22c.293-.293,.293-.768,0-1.061l-3.5-3.5Z" fill="#b8b8b8e0"></path><path d="M11.97,11.22l-2.97,2.97-2.97-2.97c-.293-.293-.768-.293-1.061,0s-.293,.768,0,1.061l3.5,3.5c.146,.146,.338,.22,.53,.22s.384-.073,.53-.22l3.5-3.5c.293-.293,.293-.768,0-1.061s-.768-.293-1.061,0Z" fill="#ffc800" data-color="color-2"></path></g></svg>