<svg xmlns="http://www.w3.org/2000/svg" width="18" height="18" viewBox="0 0 18 18"><title>grid circle plus</title><g fill="#b8b8b8e0" class="nc-icon-wrapper"><path d="M15.5,12h-1.75v-1.75c0-.414-.336-.75-.75-.75s-.75,.336-.75,.75v1.75h-1.75c-.414,0-.75,.336-.75,.75s.336,.75,.75,.75h1.75v1.75c0,.414,.336,.75,.75,.75s.75-.336,.75-.75v-1.75h1.75c.414,0,.75-.336,.75-.75s-.336-.75-.75-.75Z" fill="#ffc800" data-color="color-2"></path><circle cx="5" cy="5" r="3.25" fill="#b8b8b8e0"></circle><circle cx="13" cy="5" r="3.25" fill="#b8b8b8e0"></circle><circle cx="5" cy="13" r="3.25" fill="#b8b8b8e0"></circle></g></svg>